PathFileType	4	(X/Y/Z)	c:/Users/goper/Files/vsCode/490R/osim_files/C03/C03_Static.trc
DataRate	CameraRate	NumFrames	NumMarkers	Units                	OrigDataRate	OrigDataStartFrame	OrigNumFrames
250.00	250.00	6	36	mm	250.0	577	1538
                Frame#	Time	LPSIS			LASIS			LTH1			LTH2			LTH3			LTH4			LLFE			LMFE			LSH1			LSH2			LSH3			LSH4			LLMAL			LMMAL			LCAL			LMTP5			LTOE			LMTP1			RPSIS			RASIS			RTH1			RTH2			RTH3			RTH4			RLFE			RMFE			RSH1			RSH2			RSH3			RSH4			RLMAL			RMMAL			RCAL			RMTP1			RTOE			RMTP5		
		X1	Y1	Z1	X2	Y2	Z2	X3	Y3	Z3	X4	Y4	Z4	X5	Y5	Z5	X6	Y6	Z6	X7	Y7	Z7	X8	Y8	Z8	X9	Y9	Z9	X10	Y10	Z10	X11	Y11	Z11	X12	Y12	Z12	X13	Y13	Z13	X14	Y14	Z14	X15	Y15	Z15	X16	Y16	Z16	X17	Y17	Z17	X18	Y18	Z18	X19	Y19	Z19	X20	Y20	Z20	X21	Y21	Z21	X22	Y22	Z22	X23	Y23	Z23	X24	Y24	Z24	X25	Y25	Z25	X26	Y26	Z26	X27	Y27	Z27	X28	Y28	Z28	X29	Y29	Z29	X30	Y30	Z30	X31	Y31	Z31	X32	Y32	Z32	X33	Y33	Z33	X34	Y34	Z34	X35	Y35	Z35	X36	Y36	Z36

577	2.30400	-386.89032	1038.86682	365.40164	-202.67384	969.80835	344.62610	-348.39642	643.00592	281.89380	-349.61588	580.75299	285.87448	-272.74820	637.03906	286.99588	-282.77182	576.40582	290.53995	-331.34933	488.40768	292.93341	-341.83771	478.41812	404.98764	-401.29272	310.58960	277.59161	-396.27914	264.39478	280.06085	-340.70505	314.55057	273.15942	-344.15076	266.73523	275.38983	-352.97937	99.69103	295.93155	-334.12753	108.85086	375.16278	-419.45264	63.94724	330.33829	-219.18011	50.70968	269.72202	-187.52028	66.84417	323.21326	-209.29010	54.56334	363.53217	-397.51517	1033.15552	474.69922	-229.42795	989.58490	552.53619	-378.15253	619.62372	576.74896	-382.15970	557.97351	567.10120	-318.47333	617.53546	602.00024	-312.34998	555.99738	598.57904	-320.14236	487.66071	585.64783	-323.57773	494.94968	470.97577	-418.48114	308.79782	598.14056	-416.17563	261.72858	600.17389	-359.17026	303.58621	616.23981	-366.05515	260.84000	616.42212	-375.42081	102.07404	602.48785	-354.00183	101.24792	523.84357	-441.73914	64.07975	556.98792	-233.79097	41.60916	542.36810	-210.33672	67.24148	589.17700	-270.81540	38.50337	646.53766
578	2.30800	-386.92340	1038.86536	365.37177	-202.71638	969.81244	344.69119	-348.39053	642.98456	281.90341	-349.61240	580.74396	285.88141	-272.70837	637.05341	287.04254	-282.74594	576.41656	290.56689	-331.35175	488.40979	292.94498	-341.90619	478.40451	404.98218	-401.28094	310.58514	277.59201	-396.24957	264.38010	280.04819	-340.66315	314.57050	273.17987	-344.14670	266.73126	275.40775	-352.99829	99.70422	295.95084	-334.13101	108.83533	375.17432	-419.44376	63.95618	330.33435	-219.17999	50.72255	269.72293	-187.49913	66.87840	323.22278	-209.26900	54.61319	363.54404	-397.64221	1033.17383	474.64917	-229.56381	989.61871	552.58282	-378.02612	619.59546	576.97906	-382.11423	558.25403	568.12579	-318.59906	617.55194	602.01910	-312.45126	556.03851	598.58374	-320.21802	487.66092	585.65021	-323.65878	494.97018	470.97653	-418.51001	308.78488	598.13873	-416.21741	261.72641	600.16626	-359.22510	303.61771	616.23566	-366.10272	260.85599	616.42328	-375.42810	102.07970	602.47760	-354.01199	101.26254	523.85651	-441.73276	64.10319	556.97198	-233.79869	41.63642	542.36493	-210.35062	67.26886	589.17889	-270.78723	38.52475	646.52313
579	2.31200	-386.97275	1038.88635	365.33350	-202.73672	969.82965	344.74234	-348.36884	642.96442	281.88266	-349.61420	580.69330	285.89319	-272.67941	637.05548	287.06473	-282.72305	576.43610	290.60095	-331.32047	488.41083	292.92819	-341.96359	478.40033	404.96567	-401.25687	310.57141	277.58029	-396.23172	264.38229	280.04141	-340.62930	314.57449	273.16760	-344.08115	266.73529	275.41864	-353.00842	99.70872	295.97208	-334.16400	108.84185	375.18304	-419.47943	63.96935	330.35056	-219.19109	50.72509	269.72363	-187.50691	66.89561	323.22610	-209.29378	54.57352	363.55209	-397.75290	1033.18408	474.60764	-229.69000	989.63000	552.62335	-378.33496	619.59058	576.72260	-382.25180	558.26245	568.09088	-318.82233	617.53992	601.90613	-312.57275	556.01227	598.58807	-320.28281	487.66077	585.64331	-323.72800	494.97827	470.96918	-418.57758	308.78238	598.13342	-416.28812	261.72040	600.15948	-359.26480	303.60126	616.23206	-366.15369	260.84171	616.42493	-375.46964	102.07693	602.48083	-354.01663	101.26453	523.84113	-441.74509	64.11901	556.95306	-233.79091	41.63871	542.37622	-210.34132	67.28059	589.16571	-270.83386	38.50135	646.52423
580	2.31600	-387.00937	1038.89490	365.30295	-202.77199	969.84393	344.80389	-348.31860	642.96393	281.86862	-349.55984	580.70081	285.86844	-272.63940	637.05774	287.11111	-282.70334	576.43280	290.65640	-331.31674	488.39755	292.95569	-341.98416	478.39392	404.97278	-401.23270	310.54272	277.54581	-396.16928	264.36624	280.01019	-340.61310	314.57242	273.17700	-344.06354	266.73950	275.40964	-353.01855	99.70950	295.98349	-334.20633	108.82813	375.20740	-419.47992	63.94761	330.36319	-219.22777	50.73460	269.73404	-187.53900	66.87571	323.24527	-209.32820	54.55709	363.57184	-397.87708	1033.17969	474.58832	-229.88281	989.63306	552.67151	-378.22559	619.55145	577.00323	-382.41138	558.22797	568.12701	-318.92197	617.54578	601.95435	-312.70917	556.00421	598.62787	-320.40540	487.64487	585.66095	-323.80511	494.98535	470.97586	-418.61847	308.74963	598.14032	-416.33450	261.70441	600.16895	-359.35669	303.58170	616.24121	-366.23315	260.82205	616.44287	-375.48865	102.08319	602.49585	-354.03073	101.26302	523.84888	-441.73828	64.11581	556.93243	-233.79535	41.64650	542.37946	-210.35519	67.29373	589.16876	-270.85757	38.50064	646.53760
581	2.32000	-387.02747	1038.89026	365.25998	-202.81090	969.84717	344.86429	-348.51096	642.79767	281.90448	-348.81360	580.91425	285.46823	-272.64725	637.02698	287.12048	-282.68506	576.44135	290.66901	-331.30740	488.38583	292.95898	-342.05411	478.39792	404.98718	-401.19601	310.53552	277.51852	-396.16562	264.36029	279.98633	-340.58051	314.54865	273.18689	-344.04062	266.72272	275.44089	-353.02316	99.70412	295.98444	-334.21695	108.79333	375.23260	-419.47083	63.93493	330.39169	-219.22220	50.70828	269.75461	-187.54141	66.88091	323.26047	-209.35106	54.52203	363.59955	-397.97040	1033.16907	474.57849	-230.06590	989.62677	552.72839	-378.33514	619.52948	577.01178	-382.52151	558.18329	568.15802	-318.96094	617.52307	602.06531	-312.87878	555.99542	598.62854	-320.48215	487.63113	585.67072	-323.91461	494.97949	470.97079	-418.67505	308.71457	598.16315	-416.37286	261.65836	600.19043	-359.42172	303.56293	616.25763	-366.28607	260.80261	616.45544	-375.51736	102.06283	602.49927	-354.04959	101.26402	523.84167	-441.74551	64.11674	556.93341	-233.83702	41.63546	542.36871	-210.35252	67.28904	589.16888	-270.88394	38.48689	646.54132
582	2.32400	-387.09250	1038.89624	365.21902	-202.83420	969.85986	344.91925	-348.31702	642.90961	281.88010	-349.53259	580.67725	285.82730	-272.60999	637.03668	287.16177	-282.68921	576.42542	290.71304	-331.28671	488.39365	292.96695	-342.12369	478.38516	404.97394	-401.16608	310.52786	277.48981	-396.11774	264.32440	279.94769	-340.55847	314.55371	273.18832	-344.00244	266.71063	275.42462	-353.03983	99.71965	295.98929	-334.23334	108.77806	375.23566	-419.48669	63.90969	330.41101	-219.22713	50.69473	269.75565	-187.53242	66.88544	323.25647	-209.35533	54.52243	363.58911	-398.05774	1033.14758	474.54114	-230.23093	989.60718	552.76562	-378.42999	619.50525	577.01160	-382.56384	558.11206	568.13318	-319.05545	617.53748	602.06567	-312.92905	556.00336	598.65027	-320.55624	487.63232	585.67554	-323.98663	494.98273	470.97684	-418.71320	308.70087	598.16687	-416.39648	261.63937	600.16992	-359.49432	303.53912	616.24884	-366.34390	260.78519	616.45795	-375.53738	102.05446	602.49799	-354.06311	101.25054	523.83307	-441.76965	64.09068	556.94427	-233.82172	41.65218	542.36780	-210.37297	67.29385	589.16119	-270.89987	38.47264	646.54205
